<svg xmlns="http://www.w3.org/2000/svg" width="1200" height="600" viewBox="0 0 1200 600" role="img" aria-labelledby="title desc">
  <title id="title">Praktyczne AI w rodzinnej drukarni</title>
  <desc id="desc">Ilustracja danych sprzedażowych, skrzynki mailowej i naklejek elektrostatycznych dla artykułu Kunke Consulting.</desc>
  <defs>
    <linearGradient id="bg" x1="0" y1="0" x2="1" y2="1">
      <stop offset="0" stop-color="#f6efe3"/>
      <stop offset="0.52" stop-color="#e9dcc8"/>
      <stop offset="1" stop-color="#0a4731"/>
    </linearGradient>
    <linearGradient id="card" x1="0" y1="0" x2="1" y2="1">
      <stop offset="0" stop-color="#ffffff"/>
      <stop offset="1" stop-color="#f7efe2"/>
    </linearGradient>
    <filter id="shadow" x="-20%" y="-20%" width="140%" height="140%">
      <feDropShadow dx="0" dy="18" stdDeviation="18" flood-color="#2a2420" flood-opacity="0.18"/>
    </filter>
  </defs>

  <rect width="1200" height="600" fill="url(#bg)"/>
  <circle cx="1050" cy="95" r="160" fill="#e7a06f" opacity="0.22"/>
  <circle cx="80" cy="520" r="180" fill="#0a4731" opacity="0.12"/>

  <g filter="url(#shadow)">
    <rect x="110" y="110" width="360" height="320" rx="18" fill="url(#card)"/>
    <rect x="145" y="150" width="145" height="20" rx="10" fill="#0a4731"/>
    <rect x="145" y="195" width="265" height="16" rx="8" fill="#d8c8b4"/>
    <rect x="145" y="230" width="230" height="16" rx="8" fill="#d8c8b4"/>
    <rect x="145" y="285" width="46" height="88" rx="8" fill="#e7a06f"/>
    <rect x="210" y="245" width="46" height="128" rx="8" fill="#0a4731"/>
    <rect x="275" y="265" width="46" height="108" rx="8" fill="#3f9d6f"/>
    <rect x="340" y="210" width="46" height="163" rx="8" fill="#c45e3b"/>
  </g>

  <g filter="url(#shadow)">
    <rect x="520" y="155" width="355" height="250" rx="18" fill="#ffffff"/>
    <rect x="555" y="190" width="285" height="48" rx="12" fill="#f1e6d6"/>
    <rect x="575" y="207" width="160" height="14" rx="7" fill="#0a4731"/>
    <rect x="555" y="257" width="285" height="48" rx="12" fill="#f1e6d6"/>
    <rect x="575" y="274" width="205" height="14" rx="7" fill="#8a7d6e"/>
    <rect x="555" y="324" width="285" height="48" rx="12" fill="#f1e6d6"/>
    <rect x="575" y="341" width="125" height="14" rx="7" fill="#e7a06f"/>
    <path d="M815 178l62 45-62 45z" fill="#0a4731" opacity="0.9"/>
  </g>

  <g transform="translate(875 285)" filter="url(#shadow)">
    <path d="M60 8c41 0 74 30 74 68s-33 68-74 68-74-30-74-68S19 8 60 8z" fill="#ffffff"/>
    <path d="M31 74c27-36 64-37 91-6-7 34-32 55-65 55-27 0-51-16-65-49 14 7 27 7 39 0z" fill="#0a4731"/>
    <circle cx="83" cy="59" r="10" fill="#e7a06f"/>
    <path d="M88 35l43-24 11 33-47 9z" fill="#e7a06f"/>
    <path d="M101 132l32 32M51 132l-32 32" stroke="#0a4731" stroke-width="12" stroke-linecap="round"/>
  </g>

  <g>
    <rect x="110" y="470" width="980" height="2" fill="#f7efe2" opacity="0.55"/>
    <text x="110" y="515" fill="#f7efe2" font-family="Inter, Arial, sans-serif" font-size="38" font-weight="700">^Kunke Consulting</text>
    <text x="110" y="552" fill="#f7efe2" font-family="Inter, Arial, sans-serif" font-size="24">Praktyczne wdrożenia AI dla MŚP</text>
  </g>
</svg>
