<svg xmlns="http://www.w3.org/2000/svg" viewBox="0 0 60 40">
  <rect width="60" height="40" fill="#b22234"/>
  <g fill="#fff">
    <rect y="4.615" width="60" height="4.615"/>
    <rect y="13.845" width="60" height="4.615"/>
    <rect y="23.075" width="60" height="4.615"/>
    <rect y="32.305" width="60" height="4.615"/>
    <rect y="9.23" width="60" height="4.615"/>
    <rect y="18.46" width="60" height="4.615"/>
    <rect y="27.69" width="60" height="4.615"/>
  </g>
  <rect width="24" height="18.46" fill="#3c3b6e"/>
  <g fill="#fff">
    <circle cx="3" cy="2.5" r="0.8"/>
    <circle cx="6" cy="2.5" r="0.8"/>
    <circle cx="9" cy="2.5" r="0.8"/>
    <circle cx="12" cy="2.5" r="0.8"/>
    <circle cx="15" cy="2.5" r="0.8"/>
    <circle cx="18" cy="2.5" r="0.8"/>
    <circle cx="21" cy="2.5" r="0.8"/>
    <circle cx="4.5" cy="5" r="0.8"/>
    <circle cx="7.5" cy="5" r="0.8"/>
    <circle cx="10.5" cy="5" r="0.8"/>
    <circle cx="13.5" cy="5" r="0.8"/>
    <circle cx="16.5" cy="5" r="0.8"/>
    <circle cx="19.5" cy="5" r="0.8"/>
    <circle cx="22.5" cy="5" r="0.8"/>
    <circle cx="3" cy="7.5" r="0.8"/>
    <circle cx="6" cy="7.5" r="0.8"/>
    <circle cx="9" cy="7.5" r="0.8"/>
    <circle cx="12" cy="7.5" r="0.8"/>
    <circle cx="15" cy="7.5" r="0.8"/>
    <circle cx="18" cy="7.5" r="0.8"/>
    <circle cx="21" cy="7.5" r="0.8"/>
    <circle cx="4.5" cy="10" r="0.8"/>
    <circle cx="7.5" cy="10" r="0.8"/>
    <circle cx="10.5" cy="10" r="0.8"/>
    <circle cx="13.5" cy="10" r="0.8"/>
    <circle cx="16.5" cy="10" r="0.8"/>
    <circle cx="19.5" cy="10" r="0.8"/>
    <circle cx="22.5" cy="10" r="0.8"/>
    <circle cx="3" cy="12.5" r="0.8"/>
    <circle cx="6" cy="12.5" r="0.8"/>
    <circle cx="9" cy="12.5" r="0.8"/>
    <circle cx="12" cy="12.5" r="0.8"/>
    <circle cx="15" cy="12.5" r="0.8"/>
    <circle cx="18" cy="12.5" r="0.8"/>
    <circle cx="21" cy="12.5" r="0.8"/>
    <circle cx="4.5" cy="15" r="0.8"/>
    <circle cx="7.5" cy="15" r="0.8"/>
    <circle cx="10.5" cy="15" r="0.8"/>
    <circle cx="13.5" cy="15" r="0.8"/>
    <circle cx="16.5" cy="15" r="0.8"/>
    <circle cx="19.5" cy="15" r="0.8"/>
    <circle cx="22.5" cy="15" r="0.8"/>
  </g>
</svg>
